<svg width="32" height="32" viewBox="0 0 32 32" fill="none" xmlns="http://www.w3.org/2000/svg">
<g id="login">
<path id="Vector" fill-rule="evenodd" clip-rule="evenodd" d="M16.3333 3.33334C20.2 3.33334 23.3333 6.46668 23.3333 10.3333C23.3333 12.9113 21.9407 15.1933 19.8667 16.4267C25.6907 18.0513 26.9933 23.2313 27.3333 25.6667C27.4 26.3333 27.2 26.8667 26.8 27.3333C26.2667 27.8667 25.6667 28.2 25 28.2H7.66666C6.93333 28.2 6.33333 27.9333 5.93333 27.4667C5.53333 27 5.26666 26.4667 5.33333 25.8C5.898 19.55 9.77933 17.2507 12.7733 16.41C10.73 15.1887 9.33333 12.9547 9.33333 10.4C9.33333 6.53334 12.4667 3.33334 16.3333 3.33334ZM16.4 17.4H16C14.4 17.4 7.6 17.8667 6.86666 25.8667C6.86666 26.1333 6.93333 26.2667 7.06666 26.4C7.26666 26.6 7.46666 26.6667 7.73333 26.6667H25.0667C25.3333 26.6667 25.6 26.5333 25.7333 26.4C25.8667 26.2667 25.9333 26.0667 25.9333 25.8667C25.5333 22.8 23.8667 17.5333 16.4 17.4ZM16.3333 4.86668C13.2667 4.86668 10.8 7.33334 10.8 10.4C10.7964 11.8368 11.3532 13.2184 12.3521 14.2511C13.351 15.2839 14.7132 15.8864 16.1493 15.9307C16.2507 15.9307 16.3107 15.9327 16.3287 15.9333H16.3333C19.4 15.9333 21.8667 13.4667 21.8667 10.4C21.8667 7.33334 19.4 4.86668 16.3333 4.86668Z" fill="#00205B"/>
</g>
</svg>
