<svg width="28" height="27" viewBox="0 0 28 27" fill="none" xmlns="http://www.w3.org/2000/svg">
<g clip-path="url(#clip0_1692_282)">
<path d="M23.4205 9.25292C22.8082 4.0381 18.8219 0 14 0C9.43326 0 5.61276 3.62015 4.70068 8.42986C2.06651 8.70636 0 10.9312 0 13.6575C0 16.3839 1.95809 18.4994 4.49658 18.8659C4.51572 20.0233 4.75171 22.0938 6.09749 23.5792C7.07335 24.653 8.43189 25.1996 10.1221 25.2124C10.5622 26.2541 11.8761 26.9936 13.4897 26.9936C15.4733 26.9936 17.0296 25.8812 17.0296 24.4537C17.0296 23.0262 15.4733 21.9138 13.4897 21.9138C11.8825 21.9138 10.5749 22.6468 10.1285 23.6821C8.89112 23.6821 7.88975 23.2898 7.21367 22.5504C5.75945 20.9557 6.01458 18.1779 6.02096 18.1522C6.02733 18.0814 6.01458 18.0107 6.00182 17.94V10.6354C6.00182 5.60705 9.59271 1.51107 14 1.51107C18.4073 1.51107 21.9982 5.60062 21.9982 10.6354V19.7468H22.7508C25.6401 19.7468 27.9936 17.3741 27.9936 14.4613C27.9936 11.7735 25.9909 9.57442 23.4141 9.24006L23.4205 9.25292ZM13.4961 23.4506C14.7335 23.4506 15.5244 24.055 15.5244 24.4665C15.5244 24.8781 14.7335 25.4825 13.4961 25.4825C12.2588 25.4825 11.4679 24.8845 11.4679 24.4665C11.4679 24.0486 12.2588 23.4506 13.4961 23.4506ZM4.4902 17.3484C2.79362 16.9948 1.51162 15.4773 1.51162 13.664C1.51162 11.8507 2.79362 10.3332 4.4902 9.97952V17.3484ZM23.5098 18.1586V10.7897C25.2064 11.1434 26.4884 12.6609 26.4884 14.4742C26.4884 16.2874 25.2064 17.805 23.5098 18.1586Z" fill="#003671"/>
</g>
<defs>
<clipPath id="clip0_1692_282">
<rect width="28" height="27" fill="white"/>
</clipPath>
</defs>
</svg>
