<svg width="27" height="27" viewBox="0 0 27 27" fill="none" xmlns="http://www.w3.org/2000/svg">
<path d="M8.53201 20.6188C9.99001 20.6188 11.205 21.8338 11.205 23.2918C11.205 24.7498 10.017 25.9648 8.53201 25.9648C7.04701 25.9648 5.85901 24.7498 5.85901 23.2918C5.85901 21.8338 7.07401 20.6188 8.53201 20.6188ZM24.246 20.6188C25.731 20.6188 26.919 21.8338 26.919 23.2918C26.919 24.7498 25.704 25.9648 24.246 25.9648C22.761 25.9648 21.573 24.7498 21.573 23.2918C21.573 21.8338 22.788 20.6188 24.246 20.6188ZM8.53201 21.9148C7.77601 21.9148 7.18201 22.5358 7.18201 23.2648C7.18201 24.0208 7.80301 24.6148 8.53201 24.6148C9.28801 24.6148 9.88201 23.9938 9.88201 23.2648C9.88201 22.5358 9.26101 21.9148 8.53201 21.9148ZM24.246 21.9148C23.49 21.9148 22.896 22.5358 22.896 23.2648C22.896 24.0208 23.517 24.6148 24.246 24.6148C25.002 24.6148 25.596 23.9938 25.596 23.2648C25.596 22.5358 24.975 21.9148 24.246 21.9148ZM3.94201 1.12476C5.04901 1.12476 5.96701 1.88076 6.21001 2.93376L6.23533 3.0561C6.60151 2.77344 7.05208 2.60976 7.53301 2.60976H24.354C25.515 2.60976 26.46 3.55476 26.46 4.71576V12.3838C26.46 13.4368 25.65 14.3548 24.597 14.4628L9.88201 16.3258C9.80101 16.3528 9.72001 16.3528 9.63901 16.3528C9.48292 16.3528 9.32936 16.335 9.1817 16.3021L9.15301 16.1638C9.36901 17.1088 9.18001 18.1078 8.58601 18.9988H25.785C26.163 18.9988 26.46 19.2958 26.46 19.6738C26.46 20.0518 26.19 20.3488 25.812 20.3488H7.96501C7.56001 20.3488 7.20901 20.1328 7.04701 19.7818C6.88501 19.4308 6.93901 19.0258 7.20901 18.7288C7.64101 18.2428 8.10001 17.4328 7.88401 16.5148C7.69839 15.6626 7.06811 12.8377 6.41083 9.9006L6.29776 9.39604C5.84636 7.37779 5.39411 5.35616 5.07517 3.93276L4.94017 3.28476C4.83217 2.82576 4.42717 2.50176 3.96817 2.50176H0.75517C0.37717 2.50176 0.0801697 2.20476 0.0801697 1.82676C0.0801697 1.44876 0.37717 1.12476 0.75517 1.12476H3.94201ZM24.381 3.93276H7.56001C7.31701 3.93276 7.10101 4.04076 6.96601 4.22976C6.83101 4.41876 6.75001 4.66176 6.80401 4.87776L8.91001 14.4358C8.99101 14.8138 9.34201 15.0838 9.74701 15.0298L24.462 13.1668C24.867 13.1128 25.164 12.7888 25.164 12.4108V4.71576C25.164 4.28376 24.813 3.93276 24.381 3.93276Z" fill="#00205B"/>
</svg>
