<?xml version="1.0" encoding="UTF-8"?>
<svg width="179px" height="24px" viewBox="0 0 179 24" version="1.1" xmlns="http://www.w3.org/2000/svg" xmlns:xlink="http://www.w3.org/1999/xlink">
    <title>23652300-76A0-4096-8AB1-DE33FB8DBF7D</title>
    <g id="Page-1" stroke="none" stroke-width="1" fill="none" fill-rule="evenodd">
        <g id="Proposta_Homepage_NoLoggato_Desktop_3" transform="translate(-30.000000, -53.000000)" fill="#00205B">
            <g id="Header/Mobile" transform="translate(0.000000, 30.000000)">
                <g id="Logo/EsselungaStore-brand" transform="translate(30.000000, 23.000000)">
                    <path d="M102.485511,1.5 L102.490247,14.8634577 C102.490247,16.1458461 103.510841,17.1865554 104.768233,17.1865554 L104.767,17.1856 L104.922176,17.1811929 C106.055189,17.1029658 106.963625,16.1782292 107.040478,15.0224397 L107.045747,14.8634577 L107.03296,1.5 L113.986739,1.5 L114,15.3588276 C114,19.8541539 110.423419,23.5 106.013785,23.5 L106.013785,23.5 L103.482426,23.5 C99.0727927,23.5 95.5,19.8541539 95.5,15.3588276 L95.5,15.3588276 L95.5099455,1.5 L102.485511,1.5 Z M168.086747,1 C169.946024,1 171.513735,2.26891422 171.971566,3.99242991 L177,23 L169.886265,23 L169.019759,19.6468905 L163.044337,19.6468905 L162.114217,23 L155,23 L160.368675,3.99242991 C160.826506,2.26891422 162.393735,1 164.253012,1 L168.086747,1 Z M152.566356,1 L152.566356,6.98553236 L146.007875,6.98410292 C144.38508,6.98410292 143.069184,8.29870917 143.069184,9.91969159 L143.069184,13.8825695 C143.069184,15.5040284 144.38508,16.8191111 146.007875,16.8191111 C147.629239,16.8191111 148.945135,15.5040284 148.945135,13.8825695 L148.945135,9.13302434 L156,9.13302434 L155.99475,14.4167028 C155.99475,19.1595772 152.14252,23 147.396797,23 L144.595566,23 C139.847935,23 136,19.1595772 136,14.4167028 L136,9.58329724 C136,4.84232868 139.847935,1 144.595566,1 L152.566356,1 Z M120.39356,1 C121.581962,1 122.727079,1.65216921 123.225814,2.52521908 L123.225814,2.52521908 L127.477801,9.94614303 L127.477801,1.40891485 L134.5,1.40891485 L134.5,19.8567348 C134.5,21.5937899 133.077862,23 131.324356,23 L131.324356,23 L129.60644,23 C128.417076,23 127.549942,22.3254571 127.00648,21.3852862 L127.00648,21.3852862 L122.555865,13.5487829 L122.555865,22.6448772 L115.5,22.6448772 L115.5,4.14040896 C115.5,2.4062101 116.922619,1 118.674682,1 L118.674682,1 Z M86.9805824,1.5 L86.9805824,17.1668384 L94.5,17.1668384 L94.5,23 L84.8623695,23 C82.1800932,23 80,20.8022693 80,18.0862923 L80,18.0862923 L80,1.5 L86.9805824,1.5 Z M17.5,1.5 L17.5,7.29738504 L7.09706784,7.29738504 L7.09706784,9.49474992 L15.6175738,9.49474992 L15.6175738,14.9590404 L7.09706784,14.9590404 L7.09706784,17.1448529 L17.5,17.1448529 L17.5,22.9975932 L4.89890763,23 C2.19193177,23 0,20.7968589 0,18.0801169 L0,6.42084583 C0,3.70410379 2.19193177,1.5 4.89890763,1.5 L17.5,1.5 Z M44.8556392,1.5 L59.5,1.50337399 L59.5,7.20685558 L47.0254733,7.20685558 L47.0254733,9.4915258 L54.6343835,9.4915258 C57.3159126,9.4915258 59.4885973,11.7048603 59.4885973,14.4344147 L59.4885973,14.4344147 L59.4885973,18.0590391 C59.4885973,20.7857015 57.3159126,23 54.6343835,23 L54.6343835,23 L40.0802938,23 L40.0802938,17.2941084 L52.4574227,17.2941084 L52.4574227,15.0065462 L44.8556392,15.0079922 C42.1745852,15.0079922 40,12.7932117 40,10.0655853 L40,10.0655853 L40,6.44240685 C40,3.71285253 42.1745852,1.5 44.8556392,1.5 L44.8556392,1.5 Z M78.5,1.5 L78.5,7.29738504 L68.0981165,7.29738504 L68.0981165,9.49474992 L76.6162396,9.49474992 L76.6162396,14.9590404 L68.0981165,14.9590404 L68.0981165,17.1448529 L78.5,17.1448529 L78.5,22.9975932 L65.8967231,23 C63.1913327,23 61,20.7968589 61,18.0801169 L61,6.42084583 C61,3.70410379 63.1913327,1.5 65.8967231,1.5 L78.5,1.5 Z M23.8596754,1.5 L38.5,1.50337399 L38.5,7.20685558 L26.0265005,7.20685558 L26.0265005,9.4915258 L33.6327217,9.4915258 C36.317494,9.4915258 38.4914467,11.7048603 38.4914467,14.4344147 L38.4914467,14.4344147 L38.4914467,18.0590391 C38.4914467,20.7857015 36.317494,23 33.6327217,23 L33.6327217,23 L19.0803056,23 L19.0803056,17.2941084 L31.4611448,17.2941084 L31.4611448,15.0065462 L23.8596754,15.0079922 C21.1753783,15.0079922 19,12.7932117 19,10.0655853 L19,10.0655853 L19,6.44240685 C19,3.71285253 21.1753783,1.5 23.8596754,1.5 L23.8596754,1.5 Z M166.113253,7.72606839 L164.356627,14.4143744 L167.756145,14.4143744 L166.113253,7.72606839 Z M175.94415,0.9726 C177.25015,0.9726 178.30815,2.0316 178.30815,3.3376 C178.30815,4.6431 177.25015,5.7031 175.94415,5.7031 C174.63865,5.7031 173.57865,4.6431 173.57865,3.3376 C173.57865,2.0316 174.63865,0.9726 175.94415,0.9726 Z M175.94415,1.2406 C174.78665,1.2406 173.84715,2.1786 173.84715,3.3376 C173.84715,4.4946 174.78665,5.4346 175.94415,5.4346 C177.10315,5.4346 178.04065,4.4946 178.04065,3.3376 C178.04065,2.1786 177.10315,1.2406 175.94415,1.2406 Z M176.210573,2 C176.844934,2 176.962555,2.49143331 176.962555,2.70606116 C176.962555,2.98102432 176.827753,3.21729919 176.593833,3.3011238 C176.786784,3.39277819 176.896916,3.4692336 176.896916,3.93671702 C176.896916,4.30241341 176.896916,4.39268607 177,4.43367723 L177,4.5 L176.451542,4.5 C176.41674,4.3811717 176.396476,4.25175018 176.396476,3.99521002 C176.396476,3.65346352 176.37489,3.52173913 176.004405,3.52173913 L175.488546,3.52173913 L175.488546,4.5 L175,4.5 L175,2 L176.210573,2 Z M176.113216,2.43155859 L175.488546,2.43155859 L175.488546,3.10123434 L176.077974,3.10123434 C176.336564,3.10123434 176.461674,3.00681651 176.461674,2.75810612 C176.461674,2.62822402 176.403524,2.43155859 176.113216,2.43155859 Z" id="Combined-Shape"></path>
                </g>
            </g>
        </g>
    </g>
</svg>