<svg width="27" height="27" viewBox="0 0 27 27" fill="none" xmlns="http://www.w3.org/2000/svg">
<g clip-path="url(#clip0_1692_280)">
<path fill-rule="evenodd" clip-rule="evenodd" d="M13.5675 0C18.0495 0 21.6945 3.726 21.6945 8.316C21.6945 10.827 20.5335 13.77 18.2385 17.037C18.1497 17.1643 18.061 17.2895 17.9726 17.4125C22.5595 18.103 25.4475 19.8515 25.4475 22.032C25.4475 25.272 19.3185 27 13.5675 27C7.8165 27 1.6875 25.272 1.6875 22.059C1.6875 19.9321 4.58452 18.1613 9.15376 17.4371C9.05924 17.3066 8.96437 17.173 8.8695 17.037C6.5745 13.77 5.4135 10.827 5.4135 8.316C5.4405 3.726 9.0855 0 13.5675 0ZM16.9405 18.7788L16.8771 18.8583C16.0217 19.9303 15.3185 20.6884 15.054 20.9556L15.0009 21.0085C14.9708 21.0378 14.9517 21.0552 14.9445 21.06C14.5935 21.438 14.1075 21.654 13.5675 21.654C13.0275 21.654 12.5415 21.438 12.1635 21.06C12.1246 21.0017 11.2732 20.1448 10.1945 18.8022L10.2735 18.792C5.6565 19.359 3.1725 20.898 3.1725 22.059C3.1725 23.706 7.6275 25.542 13.5675 25.542C19.5075 25.542 23.9625 23.706 23.9625 22.059C23.9625 20.8498 21.5056 19.3079 16.9405 18.7788ZM13.5675 1.485C9.8955 1.485 6.9255 4.536 6.9255 8.316C6.9255 10.53 8.0055 13.176 10.1115 16.2C11.6505 18.414 13.1895 19.98 13.2435 20.061C13.4325 20.25 13.7295 20.25 13.9185 20.061C13.9592 20.0203 14.8449 19.1192 15.9382 17.7172C15.9869 17.5963 16.0688 17.4925 16.1714 17.4137C16.4574 17.0386 16.7539 16.6318 17.0505 16.2C19.1565 13.176 20.2365 10.53 20.2365 8.316C20.2095 4.536 17.2395 1.485 13.5675 1.485ZM13.5675 3.618C15.7275 3.618 17.4825 5.4 17.4825 7.614C17.4825 9.828 15.7275 11.583 13.5675 11.583C11.4075 11.583 9.6525 9.801 9.6525 7.587C9.6525 5.373 11.4075 3.618 13.5675 3.618ZM13.5675 5.103C12.2175 5.103 11.1375 6.237 11.1375 7.614C11.1375 8.991 12.2175 10.125 13.5675 10.125C14.9175 10.125 15.9975 8.991 15.9975 7.614C15.9975 6.237 14.9175 5.103 13.5675 5.103Z" fill="#00205B"/>
</g>
<defs>
<clipPath id="clip0_1692_280">
<rect width="27" height="27" fill="white"/>
</clipPath>
</defs>
</svg>
