<svg width="28" height="28" viewBox="0 0 28 28" fill="none" xmlns="http://www.w3.org/2000/svg">
<path d="M18.8682 18.1538C20.156 16.4923 20.9332 14.392 20.9332 12.1074C20.9332 6.79998 16.7805 2.46094 11.6505 2.46094C6.52054 2.46094 2.36792 6.79911 2.36792 12.1074C2.36792 17.4148 6.52054 21.7538 11.6505 21.7538C13.8711 21.7538 15.9142 20.9464 17.5132 19.5843L22.9544 25.0994C23.1318 25.2837 23.3766 25.3763 23.6205 25.3763C23.8645 25.3763 24.1311 25.2837 24.3086 25.076C24.6862 24.684 24.6635 24.0376 24.2867 23.6456L18.8682 18.1538ZM4.29998 12.1074C4.29998 7.90767 7.58708 4.46863 11.6505 4.46863C15.6921 4.46863 19.0011 7.9068 19.0011 12.1074C19.0011 16.308 15.6921 19.7461 11.6505 19.7461C7.58624 19.7461 4.29998 16.308 4.29998 12.1074Z" fill="#00205B"/>
</svg>
