<svg width="27" height="27" viewBox="0 0 27 27" fill="none" xmlns="http://www.w3.org/2000/svg">
<path d="M14.9664 0C15.8574 0 16.5645 0.756 16.5645 1.647V2.322C16.5645 2.592 16.7738 2.808 17.0362 2.808C17.8436 2.808 18.4613 3.30497 18.6663 3.96816L19.3683 3.969C21.4118 3.969 23.0622 5.67 23.0622 7.776V23.193C23.0361 25.299 21.3857 27 19.3413 27H8.75644C6.71288 27 5.0625 25.299 5.0625 23.193V7.776C5.0625 5.67 6.71288 3.969 8.75644 3.969L9.41288 3.96816C9.6255 3.30666 10.2364 2.835 10.9308 2.835C11.1932 2.835 11.4024 2.619 11.4024 2.349V1.647C11.4286 0.729 12.1357 0 13.0267 0H14.9656L14.9664 0ZM9.33272 5.12916L8.75644 5.13C7.34147 5.13 6.18891 6.318 6.18891 7.776V23.193C6.18891 24.651 7.34147 25.839 8.75644 25.839H19.3674C20.7824 25.839 21.935 24.651 21.935 23.193V7.776C21.935 6.318 20.7824 5.13 19.3674 5.13L18.738 5.12916V6.102C18.7642 7.29 17.847 8.262 16.6944 8.262H11.4016C10.2752 8.262 9.33188 7.317 9.33188 6.129L9.33272 5.12916ZM12.6605 19.008C12.9752 19.008 13.2368 19.278 13.2368 19.602C13.2368 19.926 12.9743 20.196 12.6605 20.196H7.78697C7.47225 20.196 7.21069 19.926 7.21069 19.602C7.21069 19.278 7.47309 19.008 7.78697 19.008H12.6605ZM20.0753 13.203C20.3108 13.419 20.3108 13.797 20.1015 14.013L17.6386 16.794C17.5601 16.902 17.4032 16.956 17.2454 16.956C17.0876 16.956 16.9307 16.902 16.8261 16.767L15.8043 15.66C15.595 15.417 15.595 15.066 15.8304 14.823C16.0658 14.607 16.4067 14.607 16.643 14.85L17.2454 15.498L19.289 13.23C19.4982 12.987 19.8653 12.987 20.0753 13.203ZM12.6605 14.958C12.9752 14.958 13.2368 15.228 13.2368 15.552C13.2368 15.876 12.9743 16.146 12.6605 16.146H7.78697C7.47225 16.146 7.21069 15.876 7.21069 15.552C7.21069 15.228 7.47309 14.958 7.78697 14.958H12.6605ZM20.0753 9.018C20.3108 9.234 20.3108 9.612 20.1015 9.828L17.6386 12.609C17.5601 12.771 17.4032 12.825 17.2454 12.825C17.0876 12.825 16.9307 12.771 16.8261 12.636L15.8043 11.529C15.595 11.286 15.595 10.935 15.8304 10.692C16.0658 10.449 16.4067 10.476 16.643 10.719L17.2454 11.367L19.289 9.045C19.4982 8.802 19.8653 8.802 20.0753 9.018ZM12.6605 10.611C12.9752 10.611 13.2368 10.881 13.2368 11.205C13.2368 11.529 12.9743 11.799 12.6605 11.799H7.78697C7.47225 11.799 7.21069 11.529 7.21069 11.205C7.21069 10.881 7.47309 10.611 7.78697 10.611H12.6605ZM14.9926 1.161H13.0275C12.7651 1.161 12.5558 1.377 12.5558 1.647V2.322C12.5558 3.24 11.8226 3.969 10.9578 3.969C10.6954 3.969 10.4861 4.185 10.4861 4.455V6.102C10.4861 6.642 10.9055 7.047 11.4033 7.047H16.7223C17.2463 7.047 17.6394 6.615 17.6394 6.102V4.455C17.6394 4.185 17.4302 3.969 17.1678 3.969C16.1722 3.969 15.4651 3.213 15.4651 2.322V1.647C15.4651 1.377 15.2558 1.161 14.9934 1.161H14.9926Z" fill="#00205B"/>
</svg>
